name rise31.4854peak64.571fall78.6902.mot
datacolumns 19
datarows 30
range 4.21998900000000 4.26832200000000
endheader
time	ground_force1_vx	ground_force1_vy	ground_force1_vz	ground_force1_px	ground_force1_py	ground_force1_pz	ground_force2_vx	ground_force2_vy	ground_force2_vz	ground_force2_px	ground_force2_py	ground_force2_pz	ground_torque1_x	ground_torque1_y	ground_torque1_z	ground_torque2_x	ground_torque2_y	ground_torque2_z	
4.21998900000000	0.95270400000000	704.98956299999998	35.50481200000000	0.19523600000000	0.00000000000000	0.09355100000000	0.00000000000000	0.00000000000000	0.00000000000000	0.00000000000000	0.00000000000000	0.00000000000000	0.00000000000000	13.60909400000000	0.00000000000000	0.00000000000000	0.00000000000000	0.00000000000000	
4.22165400000000	0.43008800000000	706.68703800000003	35.62251400000000	0.19413100000000	0.00000000000000	0.09364600000000	0.00000000000000	0.00000000000000	0.00000000000000	0.00000000000000	0.00000000000000	0.00000000000000	0.00000000000000	13.70977500000000	0.00000000000000	0.00000000000000	0.00000000000000	0.00000000000000	
4.22331800000000	-0.10251400000000	708.39143500000000	35.74507100000000	0.19300400000000	0.00000000000000	0.09374300000000	0.00000000000000	0.00000000000000	0.00000000000000	0.00000000000000	0.00000000000000	0.00000000000000	0.00000000000000	13.81323600000000	0.00000000000000	0.00000000000000	0.00000000000000	0.00000000000000	
4.22498200000000	-0.64512200000000	710.10078899999996	35.87240100000000	0.19185900000000	0.00000000000000	0.09384300000000	0.00000000000000	0.00000000000000	0.00000000000000	0.00000000000000	0.00000000000000	0.00000000000000	0.00000000000000	13.91942800000000	0.00000000000000	0.00000000000000	0.00000000000000	0.00000000000000	
4.22665700000000	-1.19771700000000	711.81326500000000	36.00442900000000	0.19069500000000	0.00000000000000	0.09394500000000	0.00000000000000	0.00000000000000	0.00000000000000	0.00000000000000	0.00000000000000	0.00000000000000	0.00000000000000	14.02830200000000	0.00000000000000	0.00000000000000	0.00000000000000	0.00000000000000	
4.22832100000000	-1.76024900000000	713.52716899999996	36.14108400000000	0.18951400000000	0.00000000000000	0.09404800000000	0.00000000000000	0.00000000000000	0.00000000000000	0.00000000000000	0.00000000000000	0.00000000000000	0.00000000000000	14.13980500000000	0.00000000000000	0.00000000000000	0.00000000000000	0.00000000000000	
4.22998600000000	-2.33263300000000	715.24094400000001	36.28230100000000	0.18831900000000	0.00000000000000	0.09415400000000	0.00000000000000	0.00000000000000	0.00000000000000	0.00000000000000	0.00000000000000	0.00000000000000	0.00000000000000	14.25388400000000	0.00000000000000	0.00000000000000	0.00000000000000	0.00000000000000	
4.23165600000000	-2.91475500000000	716.95317499999999	36.42802100000000	0.18711200000000	0.00000000000000	0.09426100000000	0.00000000000000	0.00000000000000	0.00000000000000	0.00000000000000	0.00000000000000	0.00000000000000	0.00000000000000	14.37048100000000	0.00000000000000	0.00000000000000	0.00000000000000	0.00000000000000	
4.23334000000000	-3.50647300000000	718.66258800000003	36.57819100000000	0.18589200000000	0.00000000000000	0.09437000000000	0.00000000000000	0.00000000000000	0.00000000000000	0.00000000000000	0.00000000000000	0.00000000000000	0.00000000000000	14.48953900000000	0.00000000000000	0.00000000000000	0.00000000000000	0.00000000000000	
4.23498300000000	-4.10761500000000	720.36805200000003	36.73276300000000	0.18466400000000	0.00000000000000	0.09448000000000	0.00000000000000	0.00000000000000	0.00000000000000	0.00000000000000	0.00000000000000	0.00000000000000	0.00000000000000	14.61099700000000	0.00000000000000	0.00000000000000	0.00000000000000	0.00000000000000	
4.23665000000000	-4.71798700000000	722.06857600000001	36.89169700000000	0.18342800000000	0.00000000000000	0.09459100000000	0.00000000000000	0.00000000000000	0.00000000000000	0.00000000000000	0.00000000000000	0.00000000000000	0.00000000000000	14.73479200000000	0.00000000000000	0.00000000000000	0.00000000000000	0.00000000000000	
4.23833000000000	-5.33736800000000	723.76331000000005	37.05495900000000	0.18218700000000	0.00000000000000	0.09470400000000	0.00000000000000	0.00000000000000	0.00000000000000	0.00000000000000	0.00000000000000	0.00000000000000	0.00000000000000	14.86085700000000	0.00000000000000	0.00000000000000	0.00000000000000	0.00000000000000	
4.23998300000000	-5.96551600000000	725.45154200000002	37.22251900000000	0.18094200000000	0.00000000000000	0.09481700000000	0.00000000000000	0.00000000000000	0.00000000000000	0.00000000000000	0.00000000000000	0.00000000000000	0.00000000000000	14.98912500000000	0.00000000000000	0.00000000000000	0.00000000000000	0.00000000000000	
4.24165400000000	-6.60217000000000	727.13269300000002	37.39435600000000	0.17969400000000	0.00000000000000	0.09493100000000	0.00000000000000	0.00000000000000	0.00000000000000	0.00000000000000	0.00000000000000	0.00000000000000	0.00000000000000	15.11952600000000	0.00000000000000	0.00000000000000	0.00000000000000	0.00000000000000	
4.24332800000000	-7.24705000000000	728.80632000000003	37.57045400000000	0.17844700000000	0.00000000000000	0.09504500000000	0.00000000000000	0.00000000000000	0.00000000000000	0.00000000000000	0.00000000000000	0.00000000000000	0.00000000000000	15.25198500000000	0.00000000000000	0.00000000000000	0.00000000000000	0.00000000000000	
4.24498900000000	-7.89986000000000	730.47210500000006	37.75080400000000	0.17720200000000	0.00000000000000	0.09516000000000	0.00000000000000	0.00000000000000	0.00000000000000	0.00000000000000	0.00000000000000	0.00000000000000	0.00000000000000	15.38642800000000	0.00000000000000	0.00000000000000	0.00000000000000	0.00000000000000	
4.24665400000000	-8.56028900000000	732.12985300000003	37.93540200000000	0.17595900000000	0.00000000000000	0.09527500000000	0.00000000000000	0.00000000000000	0.00000000000000	0.00000000000000	0.00000000000000	0.00000000000000	0.00000000000000	15.52277600000000	0.00000000000000	0.00000000000000	0.00000000000000	0.00000000000000	
4.24832100000000	-9.22801200000000	733.77948800000001	38.12425000000000	0.17472200000000	0.00000000000000	0.09539100000000	0.00000000000000	0.00000000000000	0.00000000000000	0.00000000000000	0.00000000000000	0.00000000000000	0.00000000000000	15.66094600000000	0.00000000000000	0.00000000000000	0.00000000000000	0.00000000000000	
4.24998200000000	-9.90269600000000	735.42104500000005	38.31735600000000	0.17349100000000	0.00000000000000	0.09550600000000	0.00000000000000	0.00000000000000	0.00000000000000	0.00000000000000	0.00000000000000	0.00000000000000	0.00000000000000	15.80085500000000	0.00000000000000	0.00000000000000	0.00000000000000	0.00000000000000	
4.25165500000000	-10.58399500000000	737.05466600000000	38.51473200000000	0.17226800000000	0.00000000000000	0.09562100000000	0.00000000000000	0.00000000000000	0.00000000000000	0.00000000000000	0.00000000000000	0.00000000000000	0.00000000000000	15.94241600000000	0.00000000000000	0.00000000000000	0.00000000000000	0.00000000000000	
4.25331900000000	-11.27155800000000	738.68059100000005	38.71639600000000	0.17105500000000	0.00000000000000	0.09573500000000	0.00000000000000	0.00000000000000	0.00000000000000	0.00000000000000	0.00000000000000	0.00000000000000	0.00000000000000	16.08553700000000	0.00000000000000	0.00000000000000	0.00000000000000	0.00000000000000	
4.25499600000000	-11.96502400000000	740.29915000000005	38.92237000000000	0.16985100000000	0.00000000000000	0.09584900000000	0.00000000000000	0.00000000000000	0.00000000000000	0.00000000000000	0.00000000000000	0.00000000000000	0.00000000000000	16.23012500000000	0.00000000000000	0.00000000000000	0.00000000000000	0.00000000000000	
4.25665300000000	-12.66402900000000	741.91075799999999	39.13267800000000	0.16866000000000	0.00000000000000	0.09596300000000	0.00000000000000	0.00000000000000	0.00000000000000	0.00000000000000	0.00000000000000	0.00000000000000	0.00000000000000	16.37608300000000	0.00000000000000	0.00000000000000	0.00000000000000	0.00000000000000	
4.25832000000000	-13.36820500000000	743.51590399999998	39.34734900000000	0.16748200000000	0.00000000000000	0.09607600000000	0.00000000000000	0.00000000000000	0.00000000000000	0.00000000000000	0.00000000000000	0.00000000000000	0.00000000000000	16.52331100000000	0.00000000000000	0.00000000000000	0.00000000000000	0.00000000000000	
4.25999100000000	-14.07718000000000	745.11514299999999	39.56641400000000	0.16631700000000	0.00000000000000	0.09618800000000	0.00000000000000	0.00000000000000	0.00000000000000	0.00000000000000	0.00000000000000	0.00000000000000	0.00000000000000	16.67170500000000	0.00000000000000	0.00000000000000	0.00000000000000	0.00000000000000	
4.26165400000000	-14.79057900000000	746.70908799999995	39.78990700000000	0.16516600000000	0.00000000000000	0.09629800000000	0.00000000000000	0.00000000000000	0.00000000000000	0.00000000000000	0.00000000000000	0.00000000000000	0.00000000000000	16.82116000000000	0.00000000000000	0.00000000000000	0.00000000000000	0.00000000000000	
4.26332200000000	-15.50802900000000	748.29839800000002	40.01785900000000	0.16403100000000	0.00000000000000	0.09640800000000	0.00000000000000	0.00000000000000	0.00000000000000	0.00000000000000	0.00000000000000	0.00000000000000	0.00000000000000	16.97156300000000	0.00000000000000	0.00000000000000	0.00000000000000	0.00000000000000	
4.26498400000000	-16.22915400000000	749.88377300000002	40.25030600000000	0.16291200000000	0.00000000000000	0.09651700000000	0.00000000000000	0.00000000000000	0.00000000000000	0.00000000000000	0.00000000000000	0.00000000000000	0.00000000000000	17.12280200000000	0.00000000000000	0.00000000000000	0.00000000000000	0.00000000000000	
4.26665600000000	-16.95357700000000	751.46594100000004	40.48728000000000	0.16180800000000	0.00000000000000	0.09662400000000	0.00000000000000	0.00000000000000	0.00000000000000	0.00000000000000	0.00000000000000	0.00000000000000	0.00000000000000	17.27476000000000	0.00000000000000	0.00000000000000	0.00000000000000	0.00000000000000	
4.26832200000000	-17.68092500000000	753.04564600000003	40.72881200000000	0.16072100000000	0.00000000000000	0.09673000000000	0.00000000000000	0.00000000000000	0.00000000000000	0.00000000000000	0.00000000000000	0.00000000000000	0.00000000000000	17.42731500000000	0.00000000000000	0.00000000000000	0.00000000000000	0.00000000000000	
